<?xml version="1.0" encoding="iso-8859-1" ?>
<svg width="169" height="34" viewBox="0 0 169 34" fill="none" xmlns="http://www.w3.org/2000/svg">
<g clip-path="url(#clip0_14_63530)">
<path d="M81.2269 28.1652V12.8855H86.2433V28.466H81.2269V28.1652ZM81.2269 7.53389H86.2433V11.1582H81.2269V7.53389ZM98.47 7.55702C99.5754 7.54646 100.678 7.66159 101.757 7.90017C102.627 8.08372 103.455 8.42625 104.2 8.91034C104.891 9.37146 105.443 10.0113 105.797 10.761C106.119 11.4908 106.292 12.2773 106.305 13.0744C106.337 13.7713 106.204 14.466 105.917 15.1024C105.624 15.7344 105.181 16.2861 104.626 16.7102C104.19 17.0553 103.715 17.349 103.211 17.5855C102.731 17.8022 102.23 17.9676 101.715 18.079L106.983 28.4891H101.478L96.051 17.4158C96.7878 17.4616 97.5273 17.4279 98.2568 17.3156C99.0129 17.1858 99.7206 16.8585 100.308 16.3671C100.714 15.9999 101.018 15.5334 101.188 15.0138C101.412 14.3393 101.515 13.6304 101.49 12.9202C101.508 12.2798 101.387 11.6431 101.133 11.0541C100.884 10.5324 100.478 10.101 99.9703 9.82027C99.195 9.3653 97.9234 9.37687 96.4232 9.39229H95.7603V28.466H90.8603V7.55702H98.47ZM109.545 12.8855H114.542V28.466H109.545V12.8855ZM109.545 7.53389H114.542V11.1582H109.545V7.53389ZM136.213 14.8595V24.6181C136.213 25.9945 136.67 26.3146 137.376 26.3146C137.755 26.3007 138.133 26.2608 138.507 26.195L138.759 26.1565L139.035 26.1179V28.5084L138.829 28.5392H138.787L138.647 28.5624C137.33 28.8197 135.987 28.9194 134.646 28.8593C134.159 28.886 133.671 28.8004 133.222 28.6092C132.773 28.4179 132.374 28.1261 132.057 27.7566C131.425 26.9854 131.157 25.8866 131.157 24.6489V14.8595H125.153V24.6181C125.153 25.6514 125.401 26.0909 125.812 26.2374C126.223 26.384 126.947 26.2721 127.715 26.1565L127.994 26.1179V28.5084L127.789 28.5392H127.742C127.405 28.5932 127.638 28.5392 127.541 28.5739C126.271 28.8237 124.976 28.9195 123.683 28.8593C122.23 28.8593 121.334 28.3966 120.799 27.6332C120.264 26.8698 120.109 25.8403 120.109 24.6489V14.8595H117.008V12.8739H120.078V7.44521H125.118V12.8778H131.212V7.44521H136.213C136.213 9.22265 136.213 11.0926 136.213 12.8701H140.737V14.8595H136.213ZM146.885 17.7782V18.8694H150.556V17.7782C150.601 16.993 150.489 16.2067 150.226 15.4649C150.09 15.1827 149.876 14.9445 149.61 14.7778C149.344 14.6111 149.035 14.5227 148.72 14.5227C148.406 14.5227 148.097 14.6111 147.831 14.7778C147.564 14.9445 147.351 15.1827 147.214 15.4649C146.952 16.2067 146.84 16.993 146.885 17.7782ZM154.859 27.8414C153.12 28.5743 151.246 28.933 149.358 28.894C147.478 28.894 145.532 28.732 143.931 27.6447C143.469 27.3352 143.082 26.9269 142.799 26.4495C142.501 25.9577 142.27 25.4287 142.113 24.8764C141.929 24.2314 141.8 23.5724 141.725 22.9062C141.43 20.5928 141.481 18.0134 142.307 15.8389C143.256 13.3404 145.516 12.523 147.951 12.4112C148.222 12.4112 148.513 12.4112 148.823 12.4112C149.133 12.4112 149.42 12.4112 149.699 12.4344C151.68 12.5616 153.878 13.2055 154.898 15.1063C155.855 16.8722 155.65 19.3282 155.65 21.2444H146.885C146.885 22.4512 146.831 23.8161 147.385 24.9073C148.013 26.1449 149.478 26.4495 150.703 26.3878C152.217 26.3286 153.672 25.7925 154.859 24.8571V27.8414ZM158.495 28.1652V13.9728C159.104 13.5789 159.764 13.2689 160.457 13.0513C161.251 12.8039 162.063 12.622 162.887 12.5076C163.817 12.3767 164.755 12.3071 165.694 12.2994C166.803 12.2903 167.912 12.3547 169.012 12.4922V15.2875C168.066 14.6783 166.299 14.6398 165.186 14.7053C164.589 14.723 164.002 14.8663 163.465 15.1256V28.466H158.48V28.1652H158.495ZM77.1061 28.1652C77.1061 23.7891 77.1061 19.6366 77.1061 15.2605C75.5206 12.3495 71.6556 12.176 68.8219 12.2262C67.0341 12.2624 65.2574 12.5136 63.5303 12.9742C62.7498 13.1604 62.003 13.4661 61.3168 13.8802H61.2896L61.1811 13.9535V28.466H66.1858V15.1256C67.0898 14.7024 68.0833 14.5026 69.0816 14.5434C70.7214 14.5665 72.1557 15.3145 72.0898 17.6086V28.466H77.0945V28.1652H77.1061ZM57.1301 7.4375V22.2662V23.0797V23.1105V23.1491C56.5679 24.7376 55.1646 26.0794 53.4744 27.0625C51.6214 28.1498 49.5263 28.7631 47.3765 28.8477C45.2269 28.7625 43.1319 28.1492 41.2787 27.0625C39.5885 26.0794 38.1774 24.7492 37.623 23.1491V23.1105V23.0681V22.2546V7.4375H43.2131V22.3086C43.2114 22.8855 43.3111 23.4584 43.5077 24.0012C43.6788 24.4722 43.9566 24.8977 44.3196 25.2447C44.6826 25.5917 45.1211 25.8509 45.6011 26.0023C46.1688 26.1821 46.7614 26.2719 47.3572 26.2683C47.9542 26.2719 48.5481 26.1821 49.1171 26.0023C49.5936 25.843 50.0281 25.5795 50.3887 25.2311C50.7541 24.8827 51.0339 24.4552 51.2066 23.9819C51.4051 23.4396 51.5049 22.8664 51.5012 22.2893V7.4375H57.1301Z" fill="black"/>
<path d="M0 0H9.42399C12.4128 0 14.9559 0.589908 16.5686 1.75816C18.4022 3.08063 19.0418 4.92361 19.1193 7.05962C19.1658 7.93126 19.0059 8.80157 18.6524 9.60049C18.2989 10.3994 17.7617 11.1046 17.0841 11.6594C15.9393 12.6182 14.5608 13.2604 13.0874 13.5216L19.7939 27.4018H13.4673L6.81892 13.1939C7.9819 13.2286 10.2536 13.2402 11.9477 11.6979C13.0331 10.707 13.6107 9.18791 13.5913 6.85913C13.5913 4.78867 13.0098 3.35438 11.4941 2.41747C10.2613 1.66948 8.2804 1.79671 5.95832 1.80828H5.64432V20.3846C5.6034 22.6807 6.3423 24.9235 7.74155 26.7502C9.90469 29.5224 13.444 30.9914 16.9485 30.9143C18.6975 30.8816 20.4179 30.467 21.988 29.6997C23.0492 29.1861 24.0173 28.5008 24.8528 27.6717L25.1009 27.3941H22.116L15.3009 13.6643C18.8557 13.0859 21.4298 10.2636 21.2864 6.63165C21.1158 2.50615 18.7007 0.747988 14.6147 0H17.2082C19.7822 0 22.1857 0.41255 23.8798 1.78515C25.2986 2.94183 26.0352 3.90188 26.2678 6.41188C26.4539 8.42836 25.9111 10.2675 24.566 11.5745C23.7018 12.4595 22.5995 13.078 21.391 13.3558L27.0547 24.2209L27.1129 24.0667C27.5322 22.9043 27.7422 21.6774 27.7331 20.4424V0.00771121H33.3774V23.1067C31.9974 26.0446 29.5435 29.2756 26.4461 30.9181C23.444 32.4882 20.0775 33.2398 16.6887 33.0965C12.856 33.154 9.08778 32.1126 5.83427 30.0969C3.36488 28.5276 1.38394 25.6629 0.0193829 23.1992L0 0Z" fill="#ED1C24"/>
</g>
<defs>
<clipPath id="clip0_14_63530">
<rect width="169" height="33.112" fill="white"/>
</clipPath>
</defs>
</svg>
